<svg xmlns="http://www.w3.org/2000/svg" viewBox="0 0 200 240" width="200" height="240">
  <rect width="200" height="240" fill="#ffffff"/>
  <path fill="#0a0a0a" d="M100 12 L168 88 L152 200 L48 200 L32 88 Z" opacity="0.95"/>
  <path fill="#ffffff" d="M100 28 L150 92 L138 186 L62 186 L50 92 Z"/>
  <circle cx="100" cy="72" r="14" fill="#0a0a0a"/>
  <path fill="#0a0a0a" d="M88 84 Q100 78 112 84 L118 100 L100 108 L82 100 Z"/>
  <path fill="none" stroke="#0a0a0a" stroke-width="5" stroke-linecap="round" d="M72 96 Q100 72 128 96"/>
  <path fill="none" stroke="#0a0a0a" stroke-width="4" stroke-linecap="round" d="M92 118 L92 175 M108 118 L108 175"/>
  <path fill="none" stroke="#0a0a0a" stroke-width="5" stroke-linecap="round" d="M88 175 L100 188 L112 175"/>
  <path fill="#0a0a0a" d="M38 96 Q100 40 162 96 L158 104 Q100 52 42 104 Z"/>
</svg>
